# This file uses centimeters as units for non-parametric coordinates.

v 1.334335 -1.479289 1.303844
v 1.344403 -1.483648 1.308203
v 1.343221 -1.470402 1.316218
v 1.329976 -1.469221 1.308203
v 1.359082 -1.485799 1.310354
v 1.359082 -1.471584 1.318917
v 1.359082 -1.454541 1.321786
v 1.342040 -1.454541 1.318917
v 1.327825 -1.454541 1.310354
v 1.373762 -1.483648 1.308203
v 1.374944 -1.470402 1.316218
v 1.383830 -1.479289 1.303844
v 1.388189 -1.469221 1.308203
v 1.390341 -1.454541 1.310354
v 1.376125 -1.454541 1.318917
v 1.374944 -1.438680 1.316218
v 1.359082 -1.437499 1.318917
v 1.388189 -1.439862 1.308203
v 1.383830 -1.429794 1.303844
v 1.373762 -1.425435 1.308203
v 1.359082 -1.423283 1.310354
v 1.343221 -1.438680 1.316218
v 1.329976 -1.439862 1.308203
v 1.344403 -1.425435 1.308203
v 1.334335 -1.429794 1.303844
v 1.343221 -1.417420 1.294957
v 1.329976 -1.425435 1.293776
v 1.359082 -1.414720 1.296138
v 1.359082 -1.411852 1.279096
v 1.342040 -1.414720 1.279096
v 1.327825 -1.423283 1.279096
v 1.374944 -1.417420 1.294957
v 1.388189 -1.425435 1.293776
v 1.390341 -1.423283 1.279096
v 1.376125 -1.414720 1.279096
v 1.374944 -1.417420 1.263235
v 1.359082 -1.414720 1.262054
v 1.388189 -1.425435 1.264416
v 1.383830 -1.429794 1.254348
v 1.373762 -1.425435 1.249990
v 1.359082 -1.423283 1.247838
v 1.343221 -1.417420 1.263235
v 1.329976 -1.425435 1.264416
v 1.344403 -1.425435 1.249990
v 1.334335 -1.429794 1.254348
v 1.343221 -1.438680 1.241974
v 1.329976 -1.439862 1.249990
v 1.359082 -1.437499 1.239275
v 1.359082 -1.454541 1.236406
v 1.342040 -1.454541 1.239275
v 1.327825 -1.454541 1.247838
v 1.374944 -1.438680 1.241974
v 1.388189 -1.439862 1.249990
v 1.390341 -1.454541 1.247838
v 1.376125 -1.454541 1.239275
v 1.374944 -1.470402 1.241974
v 1.359082 -1.471584 1.239275
v 1.388189 -1.469221 1.249990
v 1.383830 -1.479289 1.254348
v 1.373762 -1.483648 1.249990
v 1.359082 -1.485799 1.247838
v 1.343221 -1.470402 1.241974
v 1.329976 -1.469221 1.249990
v 1.344403 -1.483648 1.249990
v 1.334335 -1.479289 1.254348
v 1.343221 -1.491663 1.263235
v 1.329976 -1.483648 1.264416
v 1.359082 -1.494363 1.262054
v 1.359082 -1.497231 1.279096
v 1.342040 -1.494363 1.279096
v 1.327825 -1.485799 1.279096
v 1.374944 -1.491663 1.263235
v 1.388189 -1.483648 1.264416
v 1.390341 -1.485799 1.279096
v 1.376125 -1.494363 1.279096
v 1.374944 -1.491663 1.294957
v 1.359082 -1.494363 1.296138
v 1.388189 -1.483648 1.293776
v 1.343221 -1.491663 1.294957
v 1.329976 -1.483648 1.293776
v 1.396204 -1.470402 1.294957
v 1.398904 -1.471584 1.279096
v 1.401772 -1.454541 1.279096
v 1.398904 -1.454541 1.296138
v 1.396204 -1.470402 1.263235
v 1.398904 -1.454541 1.262054
v 1.396204 -1.438680 1.263235
v 1.398904 -1.437499 1.279096
v 1.396204 -1.438680 1.294957
v 1.321961 -1.470402 1.263235
v 1.319261 -1.471584 1.279096
v 1.316393 -1.454541 1.279096
v 1.319261 -1.454541 1.262054
v 1.321961 -1.470402 1.294957
v 1.319261 -1.454541 1.296138
v 1.321961 -1.438680 1.294957
v 1.319261 -1.437499 1.279096
v 1.321961 -1.438680 1.263235
vt 0.375000 0.000000
vt 0.437500 0.000000
vt 0.437500 0.062500
vt 0.375000 0.062500
vt 0.500000 0.000000
vt 0.500000 0.062500
vt 0.500000 0.125000
vt 0.437500 0.125000
vt 0.375000 0.125000
vt 0.562500 0.000000
vt 0.562500 0.062500
vt 0.625000 0.000000
vt 0.625000 0.062500
vt 0.625000 0.125000
vt 0.562500 0.125000
vt 0.562500 0.187500
vt 0.500000 0.187500
vt 0.625000 0.187500
vt 0.625000 0.250000
vt 0.562500 0.250000
vt 0.500000 0.250000
vt 0.437500 0.187500
vt 0.375000 0.187500
vt 0.437500 0.250000
vt 0.375000 0.250000
vt 0.437500 0.312500
vt 0.375000 0.312500
vt 0.500000 0.312500
vt 0.500000 0.375000
vt 0.437500 0.375000
vt 0.375000 0.375000
vt 0.562500 0.312500
vt 0.625000 0.312500
vt 0.625000 0.375000
vt 0.562500 0.375000
vt 0.562500 0.437500
vt 0.500000 0.437500
vt 0.625000 0.437500
vt 0.625000 0.500000
vt 0.562500 0.500000
vt 0.500000 0.500000
vt 0.437500 0.437500
vt 0.375000 0.437500
vt 0.437500 0.500000
vt 0.375000 0.500000
vt 0.437500 0.562500
vt 0.375000 0.562500
vt 0.500000 0.562500
vt 0.500000 0.625000
vt 0.437500 0.625000
vt 0.375000 0.625000
vt 0.562500 0.562500
vt 0.625000 0.562500
vt 0.625000 0.625000
vt 0.562500 0.625000
vt 0.562500 0.687500
vt 0.500000 0.687500
vt 0.625000 0.687500
vt 0.625000 0.750000
vt 0.562500 0.750000
vt 0.500000 0.750000
vt 0.437500 0.687500
vt 0.375000 0.687500
vt 0.437500 0.750000
vt 0.375000 0.750000
vt 0.437500 0.812500
vt 0.375000 0.812500
vt 0.500000 0.812500
vt 0.500000 0.875000
vt 0.437500 0.875000
vt 0.375000 0.875000
vt 0.562500 0.812500
vt 0.625000 0.812500
vt 0.625000 0.875000
vt 0.562500 0.875000
vt 0.562500 0.937500
vt 0.500000 0.937500
vt 0.625000 0.937500
vt 0.625000 1.000000
vt 0.562500 1.000000
vt 0.500000 1.000000
vt 0.437500 0.937500
vt 0.375000 0.937500
vt 0.437500 1.000000
vt 0.375000 1.000000
vt 0.687500 0.000000
vt 0.687500 0.062500
vt 0.750000 0.000000
vt 0.750000 0.062500
vt 0.750000 0.125000
vt 0.687500 0.125000
vt 0.812500 0.000000
vt 0.812500 0.062500
vt 0.875000 0.000000
vt 0.875000 0.062500
vt 0.875000 0.125000
vt 0.812500 0.125000
vt 0.812500 0.187500
vt 0.750000 0.187500
vt 0.875000 0.187500
vt 0.875000 0.250000
vt 0.812500 0.250000
vt 0.750000 0.250000
vt 0.687500 0.187500
vt 0.687500 0.250000
vt 0.125000 0.000000
vt 0.187500 0.000000
vt 0.187500 0.062500
vt 0.125000 0.062500
vt 0.250000 0.000000
vt 0.250000 0.062500
vt 0.250000 0.125000
vt 0.187500 0.125000
vt 0.125000 0.125000
vt 0.312500 0.000000
vt 0.312500 0.062500
vt 0.312500 0.125000
vt 0.312500 0.187500
vt 0.250000 0.187500
vt 0.312500 0.250000
vt 0.250000 0.250000
vt 0.187500 0.187500
vt 0.125000 0.187500
vt 0.187500 0.250000
vt 0.125000 0.250000
vn -0.577354 -0.577346 0.577350
vn -0.313218 -0.671522 0.671531
vn -0.329321 -0.329317 0.884928
vn -0.671528 -0.313215 0.671526
vn -0.000000 -0.707101 0.707112
vn -0.000000 -0.345155 0.938546
vn -0.000000 -0.000000 1.000000
vn -0.345160 -0.000000 0.938544
vn -0.707108 0.000000 0.707106
vn 0.313216 -0.671523 0.671530
vn 0.329318 -0.329319 0.884929
vn 0.577348 -0.577351 0.577352
vn 0.671524 -0.313218 0.671528
vn 0.707104 -0.000001 0.707109
vn 0.345157 0.000000 0.938545
vn 0.329320 0.329324 0.884926
vn 0.000000 0.345160 0.938544
vn 0.671524 0.313218 0.671529
vn 0.577349 0.577353 0.577349
vn 0.313220 0.671526 0.671526
vn 0.000000 0.707105 0.707108
vn -0.329322 0.329321 0.884926
vn -0.671527 0.313218 0.671525
vn -0.313220 0.671522 0.671529
vn -0.577352 0.577350 0.577348
vn -0.329322 0.884924 0.329327
vn -0.671525 0.671524 0.313224
vn 0.000000 0.938542 0.345164
vn 0.000000 1.000000 0.000000
vn -0.345161 0.938543 0.000002
vn -0.707107 0.707106 0.000002
vn 0.329322 0.884924 0.329326
vn 0.671523 0.671527 0.313223
vn 0.707103 0.707110 -0.000002
vn 0.345160 0.938544 -0.000002
vn 0.329324 0.884923 -0.329328
vn -0.000000 0.938542 -0.345165
vn 0.671524 0.671525 -0.313224
vn 0.577352 0.577350 -0.577349
vn 0.313223 0.671527 -0.671523
vn 0.000002 0.707106 -0.707107
vn -0.329325 0.884923 -0.329328
vn -0.671526 0.671523 -0.313224
vn -0.313222 0.671523 -0.671527
vn -0.577355 0.577348 -0.577348
vn -0.329325 0.329323 -0.884924
vn -0.671528 0.313221 -0.671523
vn 0.000002 0.345162 -0.938543
vn -0.000000 -0.000000 -1.000000
vn -0.345163 -0.000000 -0.938543
vn -0.707105 -0.000000 -0.707109
vn 0.329326 0.329326 -0.884923
vn 0.671527 0.313220 -0.671524
vn 0.707105 -0.000000 -0.707109
vn 0.345163 0.000000 -0.938543
vn 0.329320 -0.329322 -0.884927
vn -0.000000 -0.345157 -0.938545
vn 0.671525 -0.313221 -0.671526
vn 0.577350 -0.577347 -0.577354
vn 0.313216 -0.671526 -0.671527
vn -0.000000 -0.707104 -0.707110
vn -0.329322 -0.329319 -0.884927
vn -0.671526 -0.313220 -0.671525
vn -0.313217 -0.671525 -0.671528
vn -0.577353 -0.577348 -0.577350
vn -0.329321 -0.884926 -0.329324
vn -0.671526 -0.671524 -0.313222
vn -0.000000 -0.938544 -0.345159
vn 0.000000 -1.000000 -0.000000
vn -0.345158 -0.938545 -0.000002
vn -0.707108 -0.707106 -0.000002
vn 0.329320 -0.884926 -0.329325
vn 0.671524 -0.671525 -0.313225
vn 0.707104 -0.707110 -0.000002
vn 0.345156 -0.938545 -0.000002
vn 0.329318 -0.884927 0.329323
vn 0.000000 -0.938544 0.345160
vn 0.671521 -0.671529 0.313222
vn -0.329320 -0.884927 0.329323
vn -0.671525 -0.671526 0.313221
vn 0.884926 -0.329319 0.329325
vn 0.938545 -0.345156 -0.000000
vn 1.000000 -0.000000 0.000000
vn 0.938543 -0.000001 0.345162
vn 0.884926 -0.329320 -0.329324
vn 0.938544 -0.000001 -0.345160
vn 0.884926 0.329321 -0.329323
vn 0.938545 0.345158 0.000000
vn 0.884926 0.329320 0.329325
vn -0.884924 -0.329325 -0.329323
vn -0.938542 -0.345164 -0.000000
vn -1.000000 -0.000000 0.000000
vn -0.938543 -0.000000 -0.345161
vn -0.884924 -0.329324 0.329324
vn -0.938544 0.000000 0.345161
vn -0.884924 0.329326 0.329322
vn -0.938542 0.345165 0.000000
vn -0.884924 0.329328 -0.329322
s 1
f 1/1/1 2/2/2 3/3/3 4/4/4
f 2/2/2 5/5/5 6/6/6 3/3/3
f 3/3/3 6/6/6 7/7/7 8/8/8
f 4/4/4 3/3/3 8/8/8 9/9/9
f 5/5/5 10/10/10 11/11/11 6/6/6
f 10/10/10 12/12/12 13/13/13 11/11/11
f 11/11/11 13/13/13 14/14/14 15/15/15
f 6/6/6 11/11/11 15/15/15 7/7/7
f 7/7/7 15/15/15 16/16/16 17/17/17
f 15/15/15 14/14/14 18/18/18 16/16/16
f 16/16/16 18/18/18 19/19/19 20/20/20
f 17/17/17 16/16/16 20/20/20 21/21/21
f 9/9/9 8/8/8 22/22/22 23/23/23
f 8/8/8 7/7/7 17/17/17 22/22/22
f 22/22/22 17/17/17 21/21/21 24/24/24
f 23/23/23 22/22/22 24/24/24 25/25/25
f 25/25/25 24/24/24 26/26/26 27/27/27
f 24/24/24 21/21/21 28/28/28 26/26/26
f 26/26/26 28/28/28 29/29/29 30/30/30
f 27/27/27 26/26/26 30/30/30 31/31/31
f 21/21/21 20/20/20 32/32/32 28/28/28
f 20/20/20 19/19/19 33/33/33 32/32/32
f 32/32/32 33/33/33 34/34/34 35/35/35
f 28/28/28 32/32/32 35/35/35 29/29/29
f 29/29/29 35/35/35 36/36/36 37/37/37
f 35/35/35 34/34/34 38/38/38 36/36/36
f 36/36/36 38/38/38 39/39/39 40/40/40
f 37/37/37 36/36/36 40/40/40 41/41/41
f 31/31/31 30/30/30 42/42/42 43/43/43
f 30/30/30 29/29/29 37/37/37 42/42/42
f 42/42/42 37/37/37 41/41/41 44/44/44
f 43/43/43 42/42/42 44/44/44 45/45/45
f 45/45/45 44/44/44 46/46/46 47/47/47
f 44/44/44 41/41/41 48/48/48 46/46/46
f 46/46/46 48/48/48 49/49/49 50/50/50
f 47/47/47 46/46/46 50/50/50 51/51/51
f 41/41/41 40/40/40 52/52/52 48/48/48
f 40/40/40 39/39/39 53/53/53 52/52/52
f 52/52/52 53/53/53 54/54/54 55/55/55
f 48/48/48 52/52/52 55/55/55 49/49/49
f 49/49/49 55/55/55 56/56/56 57/57/57
f 55/55/55 54/54/54 58/58/58 56/56/56
f 56/56/56 58/58/58 59/59/59 60/60/60
f 57/57/57 56/56/56 60/60/60 61/61/61
f 51/51/51 50/50/50 62/62/62 63/63/63
f 50/50/50 49/49/49 57/57/57 62/62/62
f 62/62/62 57/57/57 61/61/61 64/64/64
f 63/63/63 62/62/62 64/64/64 65/65/65
f 65/65/65 64/64/64 66/66/66 67/67/67
f 64/64/64 61/61/61 68/68/68 66/66/66
f 66/66/66 68/68/68 69/69/69 70/70/70
f 67/67/67 66/66/66 70/70/70 71/71/71
f 61/61/61 60/60/60 72/72/72 68/68/68
f 60/60/60 59/59/59 73/73/73 72/72/72
f 72/72/72 73/73/73 74/74/74 75/75/75
f 68/68/68 72/72/72 75/75/75 69/69/69
f 69/69/69 75/75/75 76/76/76 77/77/77
f 75/75/75 74/74/74 78/78/78 76/76/76
f 76/76/76 78/78/78 12/79/12 10/80/10
f 77/77/77 76/76/76 10/80/10 5/81/5
f 71/71/71 70/70/70 79/82/79 80/83/80
f 70/70/70 69/69/69 77/77/77 79/82/79
f 79/82/79 77/77/77 5/81/5 2/84/2
f 80/83/80 79/82/79 2/84/2 1/85/1
f 12/12/12 78/86/78 81/87/81 13/13/13
f 78/86/78 74/88/74 82/89/82 81/87/81
f 81/87/81 82/89/82 83/90/83 84/91/84
f 13/13/13 81/87/81 84/91/84 14/14/14
f 74/88/74 73/92/73 85/93/85 82/89/82
f 73/92/73 59/94/59 58/95/58 85/93/85
f 85/93/85 58/95/58 54/96/54 86/97/86
f 82/89/82 85/93/85 86/97/86 83/90/83
f 83/90/83 86/97/86 87/98/87 88/99/88
f 86/97/86 54/96/54 53/100/53 87/98/87
f 87/98/87 53/100/53 39/101/39 38/102/38
f 88/99/88 87/98/87 38/102/38 34/103/34
f 14/14/14 84/91/84 89/104/89 18/18/18
f 84/91/84 83/90/83 88/99/88 89/104/89
f 89/104/89 88/99/88 34/103/34 33/105/33
f 18/18/18 89/104/89 33/105/33 19/19/19
f 65/106/65 67/107/67 90/108/90 63/109/63
f 67/107/67 71/110/71 91/111/91 90/108/90
f 90/108/90 91/111/91 92/112/92 93/113/93
f 63/109/63 90/108/90 93/113/93 51/114/51
f 71/110/71 80/115/80 94/116/94 91/111/91
f 80/115/80 1/1/1 4/4/4 94/116/94
f 94/116/94 4/4/4 9/9/9 95/117/95
f 91/111/91 94/116/94 95/117/95 92/112/92
f 92/112/92 95/117/95 96/118/96 97/119/97
f 95/117/95 9/9/9 23/23/23 96/118/96
f 96/118/96 23/23/23 25/25/25 27/120/27
f 97/119/97 96/118/96 27/120/27 31/121/31
f 51/114/51 93/113/93 98/122/98 47/123/47
f 93/113/93 92/112/92 97/119/97 98/122/98
f 98/122/98 97/119/97 31/121/31 43/124/43
f 47/123/47 98/122/98 43/124/43 45/125/45
v 1.359370 -1.362612 1.236807
v 1.359373 -1.329169 1.222066
v 1.326430 -1.584096 1.327802
v 1.335014 -1.551088 1.314981
v 1.222619 -1.451904 1.249002
v 1.258262 -1.453354 1.256721
v 1.295395 -1.348648 1.217960
v 1.312068 -1.377014 1.233770
v 1.246036 -1.392855 1.227641
v 1.275575 -1.409697 1.240928
v 1.230674 -1.512150 1.277131
v 1.264217 -1.497896 1.277518
v 1.268000 -1.559950 1.305583
v 1.291814 -1.533237 1.298554
v 1.488073 -1.493325 1.319878
v 1.454522 -1.483978 1.309122
v 1.392316 -1.579277 1.338744
v 1.383725 -1.547526 1.323070
v 1.450746 -1.546585 1.335932
v 1.426925 -1.523355 1.320991
v 1.472710 -1.376277 1.265285
v 1.443164 -1.397440 1.268759
v 1.496128 -1.431901 1.294424
v 1.460477 -1.438565 1.290303
v 1.423351 -1.339290 1.239209
v 1.406671 -1.370095 1.249481
v 1.422773 -1.338006 1.242125
v 1.358795 -1.327885 1.224982
v 1.358795 -1.361336 1.239703
v 1.406096 -1.368819 1.252377
v 1.267422 -1.558666 1.308499
v 1.325852 -1.582811 1.330718
v 1.334440 -1.549813 1.317877
v 1.291240 -1.531961 1.301450
v 1.245458 -1.391571 1.230557
v 1.222041 -1.450620 1.251918
v 1.257688 -1.452079 1.259618
v 1.275001 -1.408422 1.243824
v 1.294817 -1.347364 1.220875
v 1.311494 -1.375738 1.236667
v 1.230096 -1.510866 1.280047
v 1.263643 -1.496621 1.280415
v 1.450168 -1.545301 1.338848
v 1.487494 -1.492041 1.322793
v 1.453947 -1.482703 1.312018
v 1.426351 -1.522080 1.323888
v 1.391738 -1.577993 1.341660
v 1.383151 -1.546250 1.325967
v 1.495549 -1.430617 1.297340
v 1.472132 -1.374993 1.268201
v 1.442590 -1.396165 1.271656
v 1.459903 -1.437290 1.293200
vt 0.000000 1.000000
vt 1.000000 1.000000
vt 1.000000 0.461509
vt 0.000000 0.461509
vt 1.000000 0.230742
vt 0.000000 0.230742
vt 1.000000 0.076903
vt 0.000000 0.076903
vt 1.000000 0.153878
vt 0.000000 0.153878
vt 1.000000 0.307699
vt 0.000000 0.307699
vt 1.000000 0.384632
vt 0.000000 0.384632
vt 1.000000 0.692301
vt 0.000000 0.692301
vt 1.000000 0.538491
vt 0.000000 0.538491
vt 1.000000 0.615368
vt 0.000000 0.615368
vt 1.000000 0.846122
vt 0.000000 0.846122
vt 1.000000 0.769258
vt 0.000000 0.769258
vt 1.000000 0.923097
vt 0.000000 0.923097
vt 0.000000 0.000000
vt 1.000000 0.000000
vt 1.000000 0.923097
vt 1.000000 1.000000
vt 0.000000 1.000000
vt 0.000000 0.923097
vt 1.000000 0.384632
vt 1.000000 0.461509
vt 0.000000 0.461509
vt 0.000000 0.384632
vt 1.000000 0.153878
vt 1.000000 0.230742
vt 0.000000 0.230742
vt 0.000000 0.153878
vt 0.000000 0.000000
vt 1.000000 0.000000
vt 1.000000 0.076903
vt 0.000000 0.076903
vt 1.000000 0.307699
vt 0.000000 0.307699
vt 1.000000 0.615368
vt 1.000000 0.692301
vt 0.000000 0.692301
vt 0.000000 0.615368
vt 1.000000 0.538491
vt 0.000000 0.538491
vt 1.000000 0.769258
vt 1.000000 0.846122
vt 0.000000 0.846122
vt 0.000000 0.769258
vt 1.000000 0.923097
vt 1.000000 1.000000
vt 0.000000 1.000000
vt 0.000000 0.923097
vt 1.000000 0.384632
vt 1.000000 0.461509
vt 0.000000 0.461509
vt 0.000000 0.384632
vt 1.000000 0.153878
vt 1.000000 0.230742
vt 0.000000 0.230742
vt 0.000000 0.153878
vt 1.000000 0.000000
vt 1.000000 0.076903
vt 0.000000 0.076903
vt 0.000000 0.000000
vt 1.000000 0.307699
vt 0.000000 0.307699
vt 1.000000 0.615368
vt 1.000000 0.692301
vt 0.000000 0.692301
vt 0.000000 0.615368
vt 1.000000 0.538491
vt 0.000000 0.538491
vt 1.000000 0.769258
vt 1.000000 0.846122
vt 0.000000 0.846122
vt 0.000000 0.769258
vn -0.178667 0.396336 0.900553
vn -0.178545 0.396317 0.900586
vn -0.178545 0.396317 0.900586
vn -0.178667 0.396336 0.900553
vn -0.178370 0.396759 0.900425
vn -0.178482 0.396806 0.900383
vn -0.178482 0.396806 0.900383
vn -0.178370 0.396759 0.900425
vn -0.178330 0.396438 0.900575
vn -0.178283 0.396552 0.900534
vn -0.178283 0.396552 0.900534
vn -0.178330 0.396438 0.900575
vn -0.178425 0.396354 0.900593
vn -0.178425 0.396354 0.900593
vn -0.178298 0.396668 0.900480
vn -0.178298 0.396668 0.900480
vn -0.178720 0.396734 0.900367
vn -0.178793 0.396632 0.900398
vn -0.178793 0.396632 0.900398
vn -0.178720 0.396734 0.900367
vn -0.178608 0.396797 0.900362
vn -0.178608 0.396797 0.900362
vn -0.178807 0.396514 0.900447
vn -0.178762 0.396407 0.900503
vn -0.178762 0.396407 0.900503
vn -0.178807 0.396514 0.900447
vn 0.178401 -0.396831 -0.900388
vn 0.178401 -0.396831 -0.900388
vn 0.178545 -0.396854 -0.900349
vn 0.178545 -0.396854 -0.900349
vn 0.178753 -0.396329 -0.900539
vn 0.178753 -0.396329 -0.900539
vn 0.178620 -0.396273 -0.900590
vn 0.178620 -0.396273 -0.900590
vn 0.178802 -0.396709 -0.900362
vn 0.178802 -0.396709 -0.900362
vn 0.178857 -0.396575 -0.900410
vn 0.178857 -0.396575 -0.900410
vn 0.178689 -0.396810 -0.900340
vn 0.178689 -0.396810 -0.900340
vn 0.178837 -0.396438 -0.900474
vn 0.178837 -0.396438 -0.900474
vn 0.178338 -0.396359 -0.900608
vn 0.178338 -0.396359 -0.900608
vn 0.178254 -0.396480 -0.900572
vn 0.178253 -0.396480 -0.900571
vn 0.178471 -0.396284 -0.900615
vn 0.178471 -0.396284 -0.900615
vn 0.178234 -0.396620 -0.900514
vn 0.178234 -0.396620 -0.900514
vn 0.178288 -0.396747 -0.900447
vn 0.178288 -0.396747 -0.900447
vn 0.237489 0.905493 -0.351683
vn 0.237489 0.905493 -0.351683
vn 0.237489 0.905493 -0.351683
vn 0.237489 0.905493 -0.351683
vn -0.237489 -0.905493 0.351682
vn -0.237489 -0.905493 0.351682
vn -0.237489 -0.905493 0.351682
vn -0.237489 -0.905493 0.351682
vn -0.455926 -0.844347 0.281443
vn -0.455926 -0.844347 0.281443
vn -0.455926 -0.844347 0.281443
vn -0.455926 -0.844347 0.281443
vn 0.455935 0.844343 -0.281439
vn 0.455935 0.844343 -0.281439
vn 0.455935 0.844343 -0.281439
vn 0.455935 0.844343 -0.281439
vn -0.919800 0.257728 -0.295878
vn -0.919800 0.257728 -0.295878
vn -0.919800 0.257728 -0.295878
vn -0.919800 0.257728 -0.295878
vn 0.919801 -0.257726 0.295877
vn 0.919801 -0.257726 0.295877
vn 0.919801 -0.257726 0.295877
vn 0.919801 -0.257726 0.295877
vn -0.237489 0.870755 -0.430562
vn -0.237489 0.870755 -0.430562
vn -0.237489 0.870755 -0.430562
vn -0.237489 0.870755 -0.430562
vn 0.237490 -0.870755 0.430562
vn 0.237490 -0.870755 0.430562
vn 0.237490 -0.870755 0.430562
vn 0.237490 -0.870755 0.430562
vn -0.651771 0.637930 -0.410171
vn -0.651771 0.637930 -0.410171
vn -0.651771 0.637930 -0.410171
vn -0.651771 0.637930 -0.410171
vn 0.651788 -0.637914 0.410168
vn 0.651788 -0.637914 0.410168
vn 0.651788 -0.637914 0.410168
vn 0.651788 -0.637914 0.410168
vn -0.976553 -0.183287 -0.112912
vn -0.976553 -0.183287 -0.112912
vn -0.976553 -0.183287 -0.112912
vn -0.976553 -0.183287 -0.112912
vn 0.976554 0.183284 0.112913
vn 0.976554 0.183284 0.112913
vn 0.976554 0.183284 0.112913
vn 0.976554 0.183284 0.112913
vn -0.810961 -0.577571 0.093561
vn -0.810961 -0.577571 0.093561
vn -0.810961 -0.577571 0.093561
vn -0.810961 -0.577571 0.093561
vn 0.810958 0.577574 -0.093563
vn 0.810958 0.577574 -0.093563
vn 0.810958 0.577574 -0.093563
vn 0.810958 0.577574 -0.093563
vn 0.810962 -0.458950 0.362914
vn 0.810962 -0.458950 0.362914
vn 0.810962 -0.458950 0.362914
vn 0.810962 -0.458950 0.362914
vn -0.810959 0.458953 -0.362915
vn -0.810959 0.458953 -0.362915
vn -0.810959 0.458953 -0.362915
vn -0.810959 0.458953 -0.362915
vn -0.000000 -0.915183 0.403039
vn -0.000000 -0.915183 0.403039
vn -0.000000 -0.915183 0.403039
vn -0.000000 -0.915183 0.403039
vn 0.000000 0.915183 -0.403039
vn 0.000000 0.915183 -0.403039
vn 0.000000 0.915183 -0.403039
vn 0.000000 0.915183 -0.403039
vn 0.455926 -0.777658 0.432874
vn 0.455926 -0.777658 0.432874
vn 0.455926 -0.777658 0.432874
vn 0.455926 -0.777658 0.432874
vn -0.455936 0.777652 -0.432874
vn -0.455936 0.777652 -0.432874
vn -0.455936 0.777652 -0.432874
vn -0.455936 0.777652 -0.432874
vn 0.919801 0.392268 0.009625
vn 0.919801 0.392268 0.009625
vn 0.919801 0.392268 0.009625
vn 0.919801 0.392268 0.009625
vn -0.919801 -0.392267 -0.009626
vn -0.919801 -0.392267 -0.009626
vn -0.919801 -0.392267 -0.009626
vn -0.919801 -0.392267 -0.009626
vn 0.976554 -0.040445 0.211441
vn 0.976554 -0.040445 0.211441
vn 0.976554 -0.040445 0.211441
vn 0.976554 -0.040445 0.211441
vn -0.976553 0.040445 -0.211442
vn -0.976553 0.040445 -0.211442
vn -0.976553 0.040445 -0.211442
vn -0.976553 0.040445 -0.211442
vn 0.651771 0.733266 -0.193692
vn 0.651771 0.733266 -0.193692
vn 0.651771 0.733266 -0.193692
vn 0.651771 0.733266 -0.193692
vn -0.651787 -0.733253 0.193683
vn -0.651787 -0.733253 0.193683
vn -0.651787 -0.733253 0.193683
vn -0.651787 -0.733253 0.193683
s 1
f 125/182/99 126/183/100 127/184/101 128/185/102
f 129/186/103 130/187/104 131/188/105 132/189/106
f 133/190/107 134/191/108 135/192/109 136/193/110
f 127/197/101 126/194/100 137/195/111 138/196/112
f 137/195/111 133/190/107 136/193/110 138/196/112
f 134/191/108 139/198/113 140/199/114 135/192/109
f 139/198/113 129/186/103 132/189/106 140/199/114
f 141/200/115 142/201/116 143/202/117 144/203/118
f 130/187/104 145/204/119 146/205/120 131/188/105
f 145/204/119 141/200/115 144/203/118 146/205/120
f 147/206/121 148/207/122 149/208/123 150/209/124
f 142/201/116 147/206/121 150/209/124 143/202/117
f 148/207/122 125/182/99 128/185/102 149/208/123
s 5
f 123/154/125 124/157/126 99/156/127 100/155/128
f 111/158/129 112/161/130 102/160/131 101/159/132
f 107/162/133 108/165/134 104/164/135 103/163/136
f 99/166/127 106/169/137 105/168/138 100/167/128
f 105/168/138 106/169/137 108/165/134 107/162/133
f 103/163/136 104/164/135 110/171/139 109/170/140
f 109/170/140 110/171/139 112/161/130 111/158/129
f 117/172/141 118/175/142 114/174/143 113/173/144
f 101/159/132 102/160/131 116/177/145 115/176/146
f 115/176/146 116/177/145 118/175/142 117/172/141
f 121/178/147 122/181/148 120/180/149 119/179/150
f 113/173/144 114/174/143 122/181/148 121/178/147
f 119/179/150 120/180/149 124/157/126 123/154/125
s off
f 123/150/151 100/127/152 126/183/153 125/182/154
f 99/126/155 124/151/156 128/185/157 127/184/158
f 111/138/159 101/128/160 130/187/161 129/186/162
f 102/129/163 112/139/164 132/189/165 131/188/166
f 107/134/167 103/130/168 134/191/169 133/190/170
f 104/131/171 108/135/172 136/193/173 135/192/174
f 100/153/175 105/132/176 137/195/177 126/194/178
f 106/133/179 99/152/180 127/197/181 138/196/182
f 105/132/183 107/134/184 133/190/185 137/195/186
f 108/135/187 106/133/188 138/196/189 136/193/190
f 103/130/191 109/136/192 139/198/193 134/191/194
f 110/137/195 104/131/196 135/192/197 140/199/198
f 109/136/199 111/138/200 129/186/201 139/198/202
f 112/139/203 110/137/204 140/199/205 132/189/206
f 117/144/207 113/140/208 142/201/209 141/200/210
f 114/141/211 118/145/212 144/203/213 143/202/214
f 101/128/215 115/142/216 145/204/217 130/187/218
f 116/143/219 102/129/220 131/188/221 146/205/222
f 115/142/223 117/144/224 141/200/225 145/204/226
f 118/145/227 116/143/228 146/205/229 144/203/230
f 121/148/231 119/146/232 148/207/233 147/206/234
f 120/147/235 122/149/236 150/209/237 149/208/238
f 113/140/239 121/148/240 147/206/241 142/201/242
f 122/149/243 114/141/244 143/202/245 150/209/246
f 119/146/247 123/150/248 125/182/249 148/207/250
f 124/151/251 120/147/252 149/208/253 128/185/254
