# This file uses centimeters as units for non-parametric coordinates.

v 3.625605 -2.670133 1.526998
v -3.625605 -2.670133 1.526998
v 3.625605 4.581077 1.526998
v -3.625605 4.581077 1.526998
v 2.819915 -2.670133 1.526998
v 2.819915 4.581077 1.526998
v 2.014225 -2.670133 1.526998
v 2.014225 4.581077 1.526998
v 1.208535 -2.670133 1.526998
v 1.208535 4.581077 1.526998
v 0.402845 -2.670133 1.526998
v 0.402845 4.581077 1.526998
v -0.402845 -2.670133 1.526998
v -0.402845 4.581077 1.526998
v -1.208535 -2.670133 1.526998
v -1.208535 4.581077 1.526998
v -2.014225 -2.670133 1.526998
v -2.014225 4.581077 1.526998
v -2.819915 -2.670133 1.526998
v -2.819915 4.581077 1.526998
v 3.625605 3.775387 1.526998
v 2.819915 3.775387 1.526998
v 2.014225 3.775387 1.526998
v 1.208535 3.775387 1.526998
v 0.402845 3.775387 1.526998
v -0.402845 3.775387 1.526998
v -1.208535 3.775387 1.526998
v -2.014225 3.775387 1.526998
v -2.819915 3.775387 1.526998
v -3.625605 3.775387 1.526998
v 3.625605 2.969697 1.526998
v 2.819915 2.969697 1.526998
v 2.190698 3.207298 1.526998
v 1.747712 3.518006 1.526998
v -1.712691 3.518127 1.526998
v -2.223683 3.196943 1.526998
v -2.819915 2.969697 1.526998
v -3.625605 2.969697 1.526998
v 3.625605 2.164007 1.526998
v 2.819915 2.164007 1.526998
v 2.575855 2.714105 1.526998
v -2.541981 2.715362 1.526998
v -2.819915 2.164007 1.526998
v -3.625605 2.164007 1.526998
v 3.625605 1.358317 1.526998
v 2.819915 1.358317 1.526998
v -2.819915 1.358317 1.526998
v -3.625605 1.358317 1.526998
v 3.625605 0.552627 1.526998
v 2.819915 0.552627 1.526998
v -2.819915 0.552627 1.526998
v -3.625605 0.552627 1.526998
v 3.625605 -0.253063 1.526998
v 2.819915 -0.253063 1.526998
v 2.597972 -0.812840 1.526998
v -2.560364 -0.811501 1.526998
v -2.819915 -0.253063 1.526998
v -3.625605 -0.253063 1.526998
v 3.625605 -1.058753 1.526998
v 2.819915 -1.058753 1.526998
v 2.276372 -1.300426 1.538159
v 1.776972 -1.596635 1.463557
v -1.758770 -1.596406 1.526998
v -2.238396 -1.261270 1.526998
v -2.819915 -1.058753 1.526998
v -3.625605 -1.058753 1.526998
v 3.625605 -1.864443 1.526998
v 2.819915 -1.864443 1.526998
v 2.014225 -1.864443 1.526998
v 1.208535 -1.864443 1.526998
v 0.402845 -1.864443 1.526998
v -0.402845 -1.864443 1.526998
v -1.208535 -1.864443 1.526998
v -2.014225 -1.864443 1.526998
v -2.819915 -1.864443 1.526998
v -3.625605 -1.864443 1.526998
vt 0.110495 -0.000792
vt 0.110495 0.110495
vt -0.000792 0.110495
vt -0.000792 -0.000792
vt 1.000792 -0.000792
vt 1.000792 0.110495
vt 0.889505 0.110495
vt 0.889505 -0.000792
vt 0.778218 0.110495
vt 0.778218 -0.000792
vt 0.666931 0.110495
vt 0.666931 -0.000792
vt 0.555644 0.110495
vt 0.555644 -0.000792
vt 0.444356 0.110495
vt 0.444356 -0.000792
vt 0.333069 0.110495
vt 0.333069 -0.000792
vt 0.221782 0.110495
vt 0.221782 -0.000792
vt 1.000792 0.889505
vt 1.000792 1.000792
vt 0.889505 1.000792
vt 0.889505 0.889505
vt 0.778218 0.889505
vt 0.778218 1.000792
vt 0.666931 0.889505
vt 0.666931 1.000792
vt 0.555644 0.889505
vt 0.555644 1.000792
vt 0.444356 0.889505
vt 0.444356 1.000792
vt 0.333069 0.889505
vt 0.333069 1.000792
vt 0.221782 0.889505
vt 0.221782 1.000792
vt 0.110495 0.889505
vt 0.110495 1.000792
vt -0.000792 0.889505
vt -0.000792 1.000792
vt 1.000792 0.778218
vt 0.889505 0.778218
vt 0.808566 0.804650
vt 0.738395 0.855556
vt 0.192413 0.810524
vt 0.265521 0.851640
vt 0.110495 0.778218
vt -0.000792 0.778218
vt 1.000792 0.666931
vt 0.889505 0.666931
vt 0.857514 0.741332
vt 0.110495 0.666931
vt 0.148360 0.742311
vt -0.000792 0.666931
vt 1.000792 0.555644
vt 0.889505 0.555644
vt -0.000792 0.555644
vt 0.110495 0.555644
vt 1.000792 0.444356
vt 0.889505 0.444356
vt -0.000792 0.444356
vt 0.110495 0.444356
vt 1.000792 0.333069
vt 0.889505 0.333069
vt -0.000792 0.333069
vt 0.110495 0.333069
vt 1.000792 0.221782
vt 0.889505 0.221782
vt 0.820313 0.193392
vt 0.857514 0.252794
vt 0.110495 0.221782
vt 0.191434 0.189476
vt 0.150318 0.249857
vt -0.000792 0.221782
vt 0.735250 0.142468
vt 0.263563 0.142486
vn 0.000000 0.000000 1.000000
vn 0.000000 0.000000 1.000000
vn 0.000000 0.000000 1.000000
vn 0.000000 0.000000 1.000000
vn 0.000000 0.000000 1.000000
vn 0.000000 0.000000 1.000000
vn 0.000000 0.000000 1.000000
vn 0.000000 0.000000 1.000000
vn 0.000000 0.000000 1.000000
vn 0.000000 0.000000 1.000000
vn 0.000000 0.000000 1.000000
vn 0.000000 0.000000 1.000000
vn 0.000000 0.000000 1.000000
vn 0.000000 0.000000 1.000000
vn 0.000000 0.000000 1.000000
vn 0.000000 0.000000 1.000000
vn 0.000000 0.000000 1.000000
vn 0.000000 0.000000 1.000000
vn 0.000000 0.000000 1.000000
vn 0.000000 0.000000 1.000000
vn 0.000000 0.000000 1.000000
vn 0.000000 0.000000 1.000000
vn 0.000000 0.000000 1.000000
vn 0.000000 0.000000 1.000000
vn 0.000000 0.000000 1.000000
vn 0.000000 0.000000 1.000000
vn 0.000000 0.000000 1.000000
vn 0.000000 0.000000 1.000000
vn 0.000000 0.000000 1.000000
vn 0.000000 0.000000 1.000000
vn 0.000000 0.000000 1.000000
vn 0.000000 0.000000 1.000000
vn 0.000000 0.000000 1.000000
vn 0.000000 0.000000 1.000000
vn 0.000000 0.000000 1.000000
vn 0.000000 0.000000 1.000000
vn 0.000000 0.000000 1.000000
vn 0.000000 0.000000 1.000000
vn 0.000000 0.000000 1.000000
vn 0.000000 0.000000 1.000000
vn 0.000000 0.000000 1.000000
vn 0.000000 0.000000 1.000000
vn 0.000000 0.000000 1.000000
vn 0.000000 0.000000 1.000000
vn 0.000000 0.000000 1.000000
vn 0.000000 0.000000 1.000000
vn 0.000000 0.000000 1.000000
vn 0.000000 0.000000 1.000000
vn 0.000000 0.000000 1.000000
vn 0.000000 0.000000 1.000000
vn 0.000000 0.000000 1.000000
vn 0.000000 0.000000 1.000000
vn 0.000000 0.000000 1.000000
vn 0.000000 0.000000 1.000000
vn 0.000000 0.000000 1.000000
vn 0.000000 0.000000 1.000000
vn 0.000000 0.000000 1.000000
vn 0.000000 0.000000 1.000000
vn 0.000000 0.000000 1.000000
vn 0.000000 0.000000 1.000000
vn 0.000000 0.000000 1.000000
vn 0.000000 0.000000 1.000000
vn 0.000000 0.000000 1.000000
vn 0.000000 0.000000 1.000000
vn 0.000000 0.000000 1.000000
vn 0.000000 0.000000 1.000000
vn 0.000000 0.000000 1.000000
vn 0.000000 0.000000 1.000000
vn 0.000000 0.000000 1.000000
vn 0.000000 0.000000 1.000000
vn 0.000000 0.000000 1.000000
vn 0.000000 0.000000 1.000000
vn 0.000000 0.000000 1.000000
vn 0.000000 0.000000 1.000000
vn 0.000000 0.000000 1.000000
vn 0.000000 0.000000 1.000000
vn 0.000000 0.000000 1.000000
vn 0.000000 0.000000 1.000000
vn 0.000000 0.000000 1.000000
vn 0.000000 0.000000 1.000000
vn 0.000000 0.000000 1.000000
vn 0.000000 0.000000 1.000000
vn 0.000000 0.000000 1.000000
vn 0.000000 0.000000 1.000000
vn 0.000000 0.000000 1.000000
vn 0.000000 0.000000 1.000000
vn 0.000000 0.000000 1.000000
vn 0.000000 0.000000 1.000000
vn 0.000000 0.000000 1.000000
vn 0.000000 0.000000 1.000000
vn 0.000000 0.000000 1.000000
vn 0.000000 0.000000 1.000000
vn 0.000000 0.000000 1.000000
vn 0.000000 0.000000 1.000000
vn 0.000000 0.000000 1.000000
vn 0.000000 0.000000 1.000000
vn 0.000000 0.000000 1.000000
vn 0.000000 0.000000 1.000000
vn 0.000000 0.000000 1.000000
vn 0.000000 0.000000 1.000000
vn 0.000000 0.000000 1.000000
vn 0.000000 0.000000 1.000000
vn 0.000000 0.000000 1.000000
vn 0.000000 0.000000 1.000000
vn 0.000000 0.000000 1.000000
vn 0.000000 0.000000 1.000000
vn 0.000000 0.000000 1.000000
vn 0.000000 0.000000 1.000000
vn 0.000000 0.000000 1.000000
vn 0.000000 0.000000 1.000000
vn 0.000000 0.000000 1.000000
vn 0.000000 0.000000 1.000000
vn 0.000000 0.000000 1.000000
vn 0.000000 0.000000 1.000000
vn 0.000000 0.000000 1.000000
vn 0.000000 0.000000 1.000000
vn 0.000000 0.000000 1.000000
vn 0.000000 0.000000 1.000000
vn 0.000000 0.000000 1.000000
vn 0.000000 0.000000 1.000000
vn 0.000000 0.000000 1.000000
vn 0.000000 0.000000 1.000000
vn 0.000000 0.000000 1.000000
vn 0.000000 0.000000 1.000000
vn 0.000000 0.000000 1.000000
vn 0.000000 0.000000 1.000000
vn 0.000000 0.000000 1.000000
vn 0.000000 0.000000 1.000000
vn 0.000000 -0.000000 1.000000
vn 0.000000 0.000000 1.000000
vn 0.000000 0.000000 1.000000
vn 0.000000 -0.000000 1.000000
vn 0.000000 -0.000000 1.000000
vn 0.000000 -0.000000 1.000000
vn 0.000000 0.000000 1.000000
vn 0.000000 0.000000 1.000000
vn 0.000000 -0.000000 1.000000
vn 0.000000 -0.000000 1.000000
vn 0.000000 -0.000000 1.000000
vn 0.000000 -0.000000 1.000000
vn 0.000000 -0.000000 1.000000
vn 0.000000 -0.000000 1.000000
vn 0.000000 -0.000000 1.000000
vn 0.000000 -0.000000 1.000000
vn 0.000000 -0.000000 1.000000
vn 0.000000 0.000000 1.000000
vn 0.000000 0.000000 1.000000
vn 0.000000 -0.000000 1.000000
vn 0.000000 -0.000000 1.000000
vn 0.000000 -0.000000 1.000000
vn 0.000000 -0.000000 1.000000
vn 0.000000 -0.000000 1.000000
vn 0.000000 0.000000 1.000000
vn 0.000000 -0.000000 1.000000
vn 0.000000 -0.000000 1.000000
vn 0.000000 0.000000 1.000000
vn 0.000000 0.000000 1.000000
vn 0.000000 0.000000 1.000000
vn 0.000000 -0.000000 1.000000
vn 0.000000 -0.000000 1.000000
vn 0.000000 0.000000 1.000000
vn 0.000000 0.000000 1.000000
vn 0.000000 -0.000000 1.000000
vn 0.000000 0.000000 1.000000
vn 0.000000 0.000000 1.000000
vn 0.000000 0.000000 1.000000
vn 0.000000 0.000000 1.000000
vn 0.000000 0.000000 1.000000
vn 0.000000 0.000000 1.000000
vn 0.000000 0.000000 1.000000
vn 0.000000 0.000000 1.000000
vn 0.000000 -0.000000 1.000000
vn 0.000000 0.000000 1.000000
vn 0.000000 0.000000 1.000000
vn 0.000000 -0.000000 1.000000
vn 0.000000 -0.000000 1.000000
s off
f 19/1/1 75/2/2 76/3/3 2/4/4
f 1/5/5 67/6/6 68/7/7 5/8/8
f 5/8/9 68/7/10 69/9/11 7/10/12
f 7/10/13 69/9/14 70/11/15 9/12/16
f 9/12/17 70/11/18 71/13/19 11/14/20
f 11/14/21 71/13/22 72/15/23 13/16/24
f 13/16/25 72/15/26 73/17/27 15/18/28
f 15/18/29 73/17/30 74/19/31 17/20/32
f 17/20/33 74/19/34 75/2/35 19/1/36
f 21/21/37 3/22/38 6/23/39 22/24/40
f 23/25/41 22/24/42 6/23/43 8/26/44
f 24/27/45 23/25/46 8/26/47 10/28/48
f 25/29/49 24/27/50 10/28/51 12/30/52
f 26/31/53 25/29/54 12/30/55 14/32/56
f 27/33/57 26/31/58 14/32/59 16/34/60
f 28/35/61 27/33/62 16/34/63 18/36/64
f 29/37/65 28/35/66 18/36/67 20/38/68
f 30/39/69 29/37/70 20/38/71 4/40/72
f 31/41/73 21/21/74 22/24/75 32/42/76
f 33/43/77 32/42/78 22/24/79 23/25/80
f 34/44/81 33/43/82 23/25/83 24/27/84
f 36/45/85 35/46/86 27/33/87 28/35/88
f 37/47/89 36/45/90 28/35/91 29/37/92
f 38/48/93 37/47/94 29/37/95 30/39/96
f 39/49/97 31/41/98 32/42/99 40/50/100
f 41/51/101 40/50/102 32/42/103 33/43/104
f 43/52/105 42/53/106 36/45/107 37/47/108
f 44/54/109 43/52/110 37/47/111 38/48/112
f 45/55/113 39/49/114 40/50/115 46/56/116
f 48/57/117 47/58/118 43/52/119 44/54/120
f 49/59/121 45/55/122 46/56/123 50/60/124
f 52/61/125 51/62/126 47/58/127 48/57/128
f 53/63/129 49/59/130 50/60/131 54/64/132
f 58/65/133 57/66/134 51/62/135 52/61/136
f 59/67/137 53/63/138 54/64/139 60/68/140
f 61/69/141 60/68/142 54/64/143 55/70/144
f 65/71/145 64/72/146 56/73/147 57/66/148
f 66/74/149 65/71/150 57/66/151 58/65/152
f 67/6/153 59/67/154 60/68/155 68/7/156
f 69/9/157 68/7/158 60/68/159 61/69/160
f 70/11/161 69/9/162 61/69/163 62/75/164
f 74/19/165 73/17/166 63/76/167 64/72/168
f 75/2/169 74/19/170 64/72/171 65/71/172
f 76/3/173 75/2/174 65/71/175 66/74/176
